<svg xmlns="http://www.w3.org/2000/svg" xmlns:xlink="http://www.w3.org/1999/xlink" width="64" zoomAndPan="magnify" viewBox="0 0 48 48" height="64" preserveAspectRatio="xMidYMid meet" version="1.0"><defs><g/><clipPath id="e7d3a06bd0"><path d="M 0.488281 0 L 47.507812 0 L 47.507812 47.019531 L 0.488281 47.019531 Z M 0.488281 0 " clip-rule="nonzero"/></clipPath><clipPath id="dade808913"><path d="M 24 0 C 11.015625 0 0.488281 10.527344 0.488281 23.511719 C 0.488281 36.496094 11.015625 47.019531 24 47.019531 C 36.984375 47.019531 47.511719 36.496094 47.511719 23.511719 C 47.511719 10.527344 36.984375 0 24 0 Z M 24 0 " clip-rule="nonzero"/></clipPath><clipPath id="4825ca5f74"><path d="M 0.488281 0 L 47.507812 0 L 47.507812 47.019531 L 0.488281 47.019531 Z M 0.488281 0 " clip-rule="nonzero"/></clipPath><clipPath id="d4da79f24c"><path d="M 24 0 C 11.015625 0 0.488281 10.527344 0.488281 23.511719 C 0.488281 36.496094 11.015625 47.019531 24 47.019531 C 36.984375 47.019531 47.511719 36.496094 47.511719 23.511719 C 47.511719 10.527344 36.984375 0 24 0 Z M 24 0 " clip-rule="nonzero"/></clipPath><clipPath id="ddae3a3b73"><rect x="0" width="48" y="0" height="48"/></clipPath><clipPath id="ab70fdd811"><rect x="0" width="19" y="0" height="41"/></clipPath></defs><g clip-path="url(#e7d3a06bd0)"><g clip-path="url(#dade808913)"><g transform="matrix(1, 0, 0, 1, 0.000000000000000056, 0.000000000000005041)"><g clip-path="url(#ddae3a3b73)"><g clip-path="url(#4825ca5f74)"><g clip-path="url(#d4da79f24c)"><path fill="#ffffff" d="M 0.488281 0 L 47.511719 0 L 47.511719 47.019531 L 0.488281 47.019531 Z M 0.488281 0 " fill-opacity="1" fill-rule="nonzero"/></g></g></g></g></g></g><g transform="matrix(1, 0, 0, 1, 15, 3)"><g clip-path="url(#ab70fdd811)"><g fill="#000000" fill-opacity="1"><g transform="translate(0.303483, 29.663274)"><g><path d="M 16.3125 -14.8125 C 16.3125 -13.0625 15.710938 -11.609375 14.515625 -10.453125 C 13.328125 -9.304688 11.507812 -8.734375 9.0625 -8.734375 L 5.046875 -8.734375 L 5.046875 0 L 2.3125 0 L 2.3125 -20.9375 L 9.0625 -20.9375 C 11.425781 -20.9375 13.222656 -20.363281 14.453125 -19.21875 C 15.691406 -18.082031 16.3125 -16.613281 16.3125 -14.8125 Z M 9.0625 -10.984375 C 10.59375 -10.984375 11.71875 -11.3125 12.4375 -11.96875 C 13.15625 -12.632812 13.515625 -13.582031 13.515625 -14.8125 C 13.515625 -17.382812 12.03125 -18.671875 9.0625 -18.671875 L 5.046875 -18.671875 L 5.046875 -10.984375 Z M 9.0625 -10.984375 "/></g></g></g></g></g></svg>