<svg xmlns="http://www.w3.org/2000/svg" xmlns:xlink="http://www.w3.org/1999/xlink" width="64" zoomAndPan="magnify" viewBox="0 0 48 48" height="64" preserveAspectRatio="xMidYMid meet" version="1.0"><defs><g/><clipPath id="df25f07d60"><path d="M 7.824219 7.335938 L 40.175781 7.335938 L 40.175781 39.683594 L 7.824219 39.683594 Z M 7.824219 7.335938 " clip-rule="nonzero"/></clipPath><clipPath id="42018191b3"><path d="M 24 39.683594 C 19.679688 39.683594 15.613281 38.003906 12.5625 34.945312 C 9.503906 31.894531 7.824219 27.828125 7.824219 23.511719 C 7.824219 19.191406 9.503906 15.125 12.5625 12.074219 C 15.613281 9.015625 19.679688 7.335938 24 7.335938 C 28.320312 7.335938 32.386719 9.015625 35.4375 12.074219 C 38.496094 15.132812 40.175781 19.191406 40.175781 23.511719 C 40.175781 27.828125 38.496094 31.894531 35.4375 34.945312 C 32.386719 38.003906 28.320312 39.683594 24 39.683594 Z M 24 8.304688 C 19.941406 8.304688 16.121094 9.890625 13.25 12.757812 C 10.378906 15.628906 8.792969 19.449219 8.792969 23.511719 C 8.792969 27.570312 10.378906 31.390625 13.25 34.261719 C 16.121094 37.132812 19.941406 38.714844 24 38.714844 C 28.058594 38.714844 31.878906 37.132812 34.75 34.261719 C 37.621094 31.390625 39.207031 27.570312 39.207031 23.511719 C 39.207031 19.449219 37.621094 15.628906 34.75 12.757812 C 31.878906 9.890625 28.058594 8.304688 24 8.304688 Z M 24 8.304688 " clip-rule="nonzero"/></clipPath><clipPath id="cea24b64c7"><path d="M 0.824219 0.335938 L 33.175781 0.335938 L 33.175781 32.683594 L 0.824219 32.683594 Z M 0.824219 0.335938 " clip-rule="nonzero"/></clipPath><clipPath id="01aecc7a05"><path d="M 17 32.683594 C 12.679688 32.683594 8.613281 31.003906 5.5625 27.945312 C 2.503906 24.894531 0.824219 20.828125 0.824219 16.511719 C 0.824219 12.191406 2.503906 8.125 5.5625 5.074219 C 8.613281 2.015625 12.679688 0.335938 17 0.335938 C 21.320312 0.335938 25.386719 2.015625 28.4375 5.074219 C 31.496094 8.132812 33.175781 12.191406 33.175781 16.511719 C 33.175781 20.828125 31.496094 24.894531 28.4375 27.945312 C 25.386719 31.003906 21.320312 32.683594 17 32.683594 Z M 17 1.304688 C 12.941406 1.304688 9.121094 2.890625 6.25 5.757812 C 3.378906 8.628906 1.792969 12.449219 1.792969 16.511719 C 1.792969 20.570312 3.378906 24.390625 6.25 27.261719 C 9.121094 30.132812 12.941406 31.714844 17 31.714844 C 21.058594 31.714844 24.878906 30.132812 27.75 27.261719 C 30.621094 24.390625 32.207031 20.570312 32.207031 16.511719 C 32.207031 12.449219 30.621094 8.628906 27.75 5.757812 C 24.878906 2.890625 21.058594 1.304688 17 1.304688 Z M 17 1.304688 " clip-rule="nonzero"/></clipPath><clipPath id="95472a4cab"><rect x="0" width="34" y="0" height="33"/></clipPath></defs><g clip-path="url(#df25f07d60)"><g clip-path="url(#42018191b3)"><g transform="matrix(1, 0, 0, 1, 7, 7)"><g clip-path="url(#95472a4cab)"><g clip-path="url(#cea24b64c7)"><g clip-path="url(#01aecc7a05)"><path fill="#112241" d="M 0.824219 0.335938 L 33.175781 0.335938 L 33.175781 32.683594 L 0.824219 32.683594 Z M 0.824219 0.335938 " fill-opacity="1" fill-rule="nonzero"/></g></g></g></g></g></g><g fill="#000000" fill-opacity="1"><g transform="translate(19.462691, 28.285715)"><g><path d="M 8.515625 -7.71875 C 8.515625 -6.8125 8.203125 -6.054688 7.578125 -5.453125 C 6.953125 -4.859375 6.003906 -4.5625 4.734375 -4.5625 L 2.640625 -4.5625 L 2.640625 0 L 1.203125 0 L 1.203125 -10.921875 L 4.734375 -10.921875 C 5.960938 -10.921875 6.898438 -10.625 7.546875 -10.03125 C 8.191406 -9.4375 8.515625 -8.664062 8.515625 -7.71875 Z M 4.734375 -5.734375 C 5.523438 -5.734375 6.109375 -5.90625 6.484375 -6.25 C 6.859375 -6.59375 7.046875 -7.082031 7.046875 -7.71875 C 7.046875 -9.070312 6.273438 -9.75 4.734375 -9.75 L 2.640625 -9.75 L 2.640625 -5.734375 Z M 4.734375 -5.734375 "/></g></g></g></svg>